<svg xmlns="http://www.w3.org/2000/svg" width="240" height="320" viewBox="0 0 240 320">
<defs><filter id="sh"><feDropShadow dx="0" dy="4" stdDeviation="8" flood-opacity="0.1"/></filter></defs>
<rect width="240" height="320" fill="#E2E8F0" rx="0"/>
<rect x="0" y="0" width="240" height="320" rx="16" fill="rgb(255,255,255)" fill-opacity="0.85" filter="url(#sh)"/>
<rect x="0" y="0" width="240" height="28" rx="0" fill="none" fill-opacity="1"/>
<text x="8" y="12" font-family="Inter,Noto Sans SC,sans-serif" font-size="12" font-weight="600" fill="#64748B">Yoho</text>
<rect x="8" y="20" width="240" height="320" rx="0" fill="none" fill-opacity="1"/>
<rect x="8" y="20" width="10" height="10" rx="0" fill="none" fill-opacity="1" stroke="#94A3B8" stroke-width="1.5"/>
<rect x="8" y="34" width="10" height="10" rx="0" fill="none" fill-opacity="1" stroke="#94A3B8" stroke-width="1.5"/>
<rect x="0" y="28" width="240" height="160" rx="0" fill="rgb(101,196,102)" fill-opacity="0.08"/>
<text x="0" y="76" font-family="Inter,Noto Sans SC,sans-serif" font-size="48" font-weight="400" fill="#000">🐱</text>
<text x="0" y="97" font-family="Inter,Noto Sans SC,sans-serif" font-size="13" font-weight="600" fill="#1E293B">小 Yo</text>
<text x="0" y="116" font-family="Inter,Noto Sans SC,sans-serif" font-size="11" font-weight="400" fill="#64748B">今日陪我 2h 啦～</text>
<rect x="0" y="188" width="240" height="320" rx="0" fill="none" fill-opacity="1"/>
<text x="12" y="206" font-family="Inter,Noto Sans SC,sans-serif" font-size="10" font-weight="500" fill="#64748B">今日目标</text>
<rect x="12" y="218" width="240" height="8" rx="4" fill="#E2E8F0" fill-opacity="1"/>
<rect x="12" y="218" width="130" height="8" rx="4" fill="#65C466" fill-opacity="1"/>
<rect x="12" y="230" width="240" height="320" rx="0" fill="none" fill-opacity="1"/>
<text x="12" y="241" font-family="Inter,Noto Sans SC,sans-serif" font-size="11" font-weight="400" fill="#65C466">🚀 完成 3/5</text>
<text x="12" y="260" font-family="Inter,Noto Sans SC,sans-serif" font-size="11" font-weight="600" fill="#65C466">60%</text>
<rect x="0" y="256" width="240" height="48" rx="0" fill="none" fill-opacity="1"/>
<rect x="8" y="256" width="40" height="36" rx="8" fill="#F0FDF4" fill-opacity="1"/>
<rect x="8" y="256" width="14" height="14" rx="0" fill="none" fill-opacity="1" stroke="#65C466" stroke-width="1.5"/>
<text x="8" y="281" font-family="Inter,Noto Sans SC,sans-serif" font-size="9" font-weight="400" fill="#65C466">喂食</text>
<rect x="8" y="300" width="40" height="36" rx="8" fill="#EFF6FF" fill-opacity="1"/>
<rect x="8" y="300" width="14" height="14" rx="0" fill="none" fill-opacity="1" stroke="#3B82F6" stroke-width="1.5"/>
<text x="8" y="325" font-family="Inter,Noto Sans SC,sans-serif" font-size="9" font-weight="400" fill="#3B82F6">玩耍</text>
<rect x="8" y="344" width="40" height="36" rx="8" fill="#FFF7ED" fill-opacity="1"/>
<rect x="8" y="344" width="14" height="14" rx="0" fill="none" fill-opacity="1" stroke="#F59E0B" stroke-width="1.5"/>
<text x="8" y="369" font-family="Inter,Noto Sans SC,sans-serif" font-size="9" font-weight="400" fill="#F59E0B">树木</text>
<rect x="8" y="388" width="40" height="36" rx="8" fill="#F8FAFC" fill-opacity="1"/>
<rect x="8" y="388" width="14" height="14" rx="0" fill="none" fill-opacity="1" stroke="#64748B" stroke-width="1.5"/>
<text x="8" y="413" font-family="Inter,Noto Sans SC,sans-serif" font-size="9" font-weight="400" fill="#64748B">更多</text>
</svg>