<svg xmlns="http://www.w3.org/2000/svg" width="240" height="320" viewBox="0 0 240 320">
<defs><filter id="sh"><feDropShadow dx="0" dy="4" stdDeviation="8" flood-opacity="0.1"/></filter></defs>
<rect width="240" height="320" fill="#E2E8F0" rx="0"/>
<rect x="0" y="0" width="240" height="320" rx="16" fill="rgb(255,255,255)" fill-opacity="0.85" filter="url(#sh)"/>
<text x="12" y="28" font-family="Inter,Noto Sans SC,sans-serif" font-size="16" font-weight="700" fill="#1E293B">📋 今日小目标</text>
<rect x="12" y="44" width="240" height="320" rx="6" fill="#F0FDF4" fill-opacity="1"/>
<rect x="20" y="52" width="240" height="320" rx="0" fill="none" fill-opacity="1"/>
<rect x="20" y="52" width="20" height="20" rx="10" fill="#65C466" fill-opacity="1"/>
<text x="20" y="63" font-family="Inter,Noto Sans SC,sans-serif" font-size="11" font-weight="700" fill="#FFF">✓</text>
<text x="20" y="92" font-family="Inter,Noto Sans SC,sans-serif" font-size="12" font-weight="400" fill="#1E293B">专注 2 小时</text>
<text x="20" y="112" font-family="Inter,Noto Sans SC,sans-serif" font-size="12" font-weight="400" fill="#000">✅</text>
<rect x="12" y="108" width="240" height="320" rx="6" fill="#F8FAFC" fill-opacity="1"/>
<rect x="20" y="116" width="240" height="320" rx="0" fill="none" fill-opacity="1"/>
<rect x="20" y="116" width="20" height="20" rx="10" fill="#E2E8F0" fill-opacity="1"/>
<text x="20" y="127" font-family="Inter,Noto Sans SC,sans-serif" font-size="11" font-weight="400" fill="#94A3B8">○</text>
<text x="20" y="156" font-family="Inter,Noto Sans SC,sans-serif" font-size="12" font-weight="400" fill="#1E293B">喂一次宠物</text>
<text x="20" y="176" font-family="Inter,Noto Sans SC,sans-serif" font-size="12" font-weight="400" fill="#000">⏳</text>
<rect x="12" y="172" width="240" height="320" rx="6" fill="#F8FAFC" fill-opacity="1"/>
<rect x="20" y="180" width="240" height="320" rx="0" fill="none" fill-opacity="1"/>
<rect x="20" y="180" width="20" height="20" rx="10" fill="#E2E8F0" fill-opacity="1"/>
<text x="20" y="191" font-family="Inter,Noto Sans SC,sans-serif" font-size="11" font-weight="400" fill="#94A3B8">○</text>
<text x="20" y="220" font-family="Inter,Noto Sans SC,sans-serif" font-size="12" font-weight="400" fill="#1E293B">读 30 分钟书</text>
<text x="20" y="240" font-family="Inter,Noto Sans SC,sans-serif" font-size="12" font-weight="400" fill="#000">⏳</text>
<rect x="12" y="236" width="240" height="36" rx="6" fill="#F1F5F9" fill-opacity="1"/>
<text x="12" y="248" font-family="Inter,Noto Sans SC,sans-serif" font-size="12" font-weight="400" fill="#64748B">+ 添加小目标</text>
</svg>