<svg xmlns="http://www.w3.org/2000/svg" width="240" height="320" viewBox="0 0 240 320">
<defs><filter id="sh"><feDropShadow dx="0" dy="4" stdDeviation="8" flood-opacity="0.1"/></filter></defs>
<rect width="240" height="320" fill="#E2E8F0" rx="0"/>
<rect x="0" y="0" width="240" height="320" rx="16" fill="rgb(255,255,255)" fill-opacity="0.85" filter="url(#sh)"/>
<text x="12" y="30" font-family="Inter,Noto Sans SC,sans-serif" font-size="18" font-weight="700" fill="#1E293B">欢迎来到 Yoho 🎉</text>
<text x="12" y="62" font-family="Inter,Noto Sans SC,sans-serif" font-size="12" font-weight="400" fill="#64748B">选择你的专属宠物伙伴</text>
<rect x="12" y="82" width="240" height="320" rx="0" fill="none" fill-opacity="1"/>
<rect x="12" y="82" width="48" height="60" rx="8" fill="#F1F5F9" fill-opacity="1"/>
<text x="12" y="106" font-family="Inter,Noto Sans SC,sans-serif" font-size="24" font-weight="400" fill="#000">🐱</text>
<text x="12" y="127" font-family="Inter,Noto Sans SC,sans-serif" font-size="9" font-weight="400" fill="#1E293B">银渐层</text>
<rect x="12" y="150" width="48" height="60" rx="8" fill="#65C466" fill-opacity="1"/>
<text x="12" y="174" font-family="Inter,Noto Sans SC,sans-serif" font-size="24" font-weight="400" fill="#000">🐱</text>
<text x="12" y="195" font-family="Inter,Noto Sans SC,sans-serif" font-size="9" font-weight="400" fill="#FFF">布偶</text>
<rect x="12" y="218" width="48" height="60" rx="8" fill="#F1F5F9" fill-opacity="1"/>
<text x="12" y="242" font-family="Inter,Noto Sans SC,sans-serif" font-size="24" font-weight="400" fill="#000">🐶</text>
<text x="12" y="263" font-family="Inter,Noto Sans SC,sans-serif" font-size="9" font-weight="400" fill="#1E293B">泰迪</text>
<rect x="12" y="286" width="48" height="60" rx="8" fill="#F1F5F9" fill-opacity="1"/>
<text x="12" y="310" font-family="Inter,Noto Sans SC,sans-serif" font-size="24" font-weight="400" fill="#000">🐶</text>
<text x="12" y="331" font-family="Inter,Noto Sans SC,sans-serif" font-size="9" font-weight="400" fill="#1E293B">金毛</text>
<rect x="12" y="378" width="240" height="320" rx="0" fill="none" fill-opacity="1"/>
<text x="12" y="389" font-family="Inter,Noto Sans SC,sans-serif" font-size="11" font-weight="500" fill="#64748B">给宠物取个名字</text>
<rect x="12" y="401" width="240" height="36" rx="8" fill="#F8FAFC" fill-opacity="1" stroke="#E2E8F0" stroke-width="1"/>
<text x="20" y="414" font-family="Inter,Noto Sans SC,sans-serif" font-size="13" font-weight="400" fill="#1E293B">小 Yo</text>
<rect x="12" y="466" width="240" height="320" rx="0" fill="none" fill-opacity="1"/>
<text x="12" y="477" font-family="Inter,Noto Sans SC,sans-serif" font-size="11" font-weight="500" fill="#64748B">设定你的目标</text>
<rect x="12" y="489" width="240" height="36" rx="8" fill="#F8FAFC" fill-opacity="1" stroke="#E2E8F0" stroke-width="1"/>
<text x="20" y="501" font-family="Inter,Noto Sans SC,sans-serif" font-size="12" font-weight="400" fill="#1E293B">2028-01-01 前攒够首付买车</text>
<rect x="12" y="554" width="240" height="40" rx="10" fill="#65C466" fill-opacity="1"/>
<text x="12" y="568" font-family="Inter,Noto Sans SC,sans-serif" font-size="14" font-weight="600" fill="#FFFFFF">开始旅程 ✨</text>
</svg>