<svg xmlns="http://www.w3.org/2000/svg" width="240" height="320" viewBox="0 0 240 320">
<defs><filter id="sh"><feDropShadow dx="0" dy="4" stdDeviation="8" flood-opacity="0.1"/></filter></defs>
<rect width="240" height="320" fill="#E2E8F0" rx="0"/>
<rect x="0" y="0" width="240" height="320" rx="16" fill="rgb(255,255,255)" fill-opacity="0.95" filter="url(#sh)"/>
<text x="12" y="30" font-family="Inter,Noto Sans SC,sans-serif" font-size="18" font-weight="700" fill="#65C466">🎉 目标达成！</text>
<rect x="12" y="48" width="240" height="80" rx="10" fill="rgb(101,196,102)" fill-opacity="0.08"/>
<text x="12" y="88" font-family="Inter,Noto Sans SC,sans-serif" font-size="40" font-weight="400" fill="#000">🍇</text>
<text x="12" y="114" font-family="Inter,Noto Sans SC,sans-serif" font-size="14" font-weight="600" fill="#1E293B">一起买房树</text>
<rect x="12" y="138" width="240" height="320" rx="0" fill="none" fill-opacity="1"/>
<rect x="12" y="138" width="64" height="48" rx="8" fill="#F0FDF4" fill-opacity="1"/>
<text x="12" y="154" font-family="Inter,Noto Sans SC,sans-serif" font-size="16" font-weight="700" fill="#65C466">546</text>
<text x="12" y="174" font-family="Inter,Noto Sans SC,sans-serif" font-size="10" font-weight="400" fill="#64748B">天</text>
<rect x="12" y="194" width="64" height="48" rx="8" fill="#FFF7ED" fill-opacity="1"/>
<text x="12" y="210" font-family="Inter,Noto Sans SC,sans-serif" font-size="16" font-weight="700" fill="#F59E0B">2184</text>
<text x="12" y="230" font-family="Inter,Noto Sans SC,sans-serif" font-size="10" font-weight="400" fill="#64748B">肥料</text>
<rect x="12" y="250" width="64" height="48" rx="8" fill="#EFF6FF" fill-opacity="1"/>
<text x="12" y="266" font-family="Inter,Noto Sans SC,sans-serif" font-size="16" font-weight="700" fill="#3B82F6">1092</text>
<text x="12" y="286" font-family="Inter,Noto Sans SC,sans-serif" font-size="10" font-weight="400" fill="#64748B">小时</text>
<rect x="12" y="320" width="240" height="40" rx="0" fill="none" fill-opacity="1"/>
<rect x="12" y="320" width="104" height="40" rx="10" fill="#65C466" fill-opacity="1"/>
<text x="12" y="333" font-family="Inter,Noto Sans SC,sans-serif" font-size="13" font-weight="600" fill="#FFF">💾 保存</text>
<rect x="12" y="368" width="104" height="40" rx="10" fill="#EC4899" fill-opacity="1"/>
<text x="12" y="381" font-family="Inter,Noto Sans SC,sans-serif" font-size="13" font-weight="600" fill="#FFF">📤 分享</text>
</svg>