<svg xmlns="http://www.w3.org/2000/svg" width="240" height="320" viewBox="0 0 240 320">
<defs><filter id="sh"><feDropShadow dx="0" dy="4" stdDeviation="8" flood-opacity="0.1"/></filter></defs>
<rect width="240" height="320" fill="#E2E8F0" rx="0"/>
<rect x="0" y="0" width="240" height="320" rx="16" fill="rgb(255,255,255)" fill-opacity="0.85" filter="url(#sh)"/>
<text x="12" y="28" font-family="Inter,Noto Sans SC,sans-serif" font-size="16" font-weight="700" fill="#1E293B">⚙️ 设置</text>
<rect x="12" y="44" width="240" height="320" rx="0" fill="none" fill-opacity="1"/>
<text x="12" y="55" font-family="Inter,Noto Sans SC,sans-serif" font-size="11" font-weight="600" fill="#64748B">通用</text>
<rect x="12" y="67" width="240" height="36" rx="6" fill="#F8FAFC" fill-opacity="1"/>
<text x="20" y="79" font-family="Inter,Noto Sans SC,sans-serif" font-size="12" font-weight="400" fill="#1E293B">宠物名字</text>
<text x="20" y="99" font-family="Inter,Noto Sans SC,sans-serif" font-size="12" font-weight="400" fill="#65C466">小 Yo</text>
<rect x="12" y="107" width="240" height="36" rx="6" fill="#F8FAFC" fill-opacity="1"/>
<text x="20" y="119" font-family="Inter,Noto Sans SC,sans-serif" font-size="12" font-weight="400" fill="#1E293B">当前模式</text>
<text x="20" y="139" font-family="Inter,Noto Sans SC,sans-serif" font-size="12" font-weight="400" fill="#3B82F6">单身模式 🧑‍💻</text>
<rect x="12" y="168" width="240" height="320" rx="0" fill="none" fill-opacity="1"/>
<text x="12" y="179" font-family="Inter,Noto Sans SC,sans-serif" font-size="11" font-weight="600" fill="#64748B">外观</text>
<rect x="12" y="191" width="240" height="36" rx="6" fill="#F8FAFC" fill-opacity="1"/>
<text x="20" y="203" font-family="Inter,Noto Sans SC,sans-serif" font-size="12" font-weight="400" fill="#1E293B">透明度</text>
<text x="20" y="223" font-family="Inter,Noto Sans SC,sans-serif" font-size="12" font-weight="400" fill="#64748B">85%</text>
<rect x="12" y="248" width="240" height="320" rx="0" fill="none" fill-opacity="1"/>
<text x="12" y="259" font-family="Inter,Noto Sans SC,sans-serif" font-size="11" font-weight="600" fill="#64748B">数据</text>
<rect x="12" y="271" width="240" height="36" rx="6" fill="#FEF2F2" fill-opacity="1"/>
<text x="12" y="283" font-family="Inter,Noto Sans SC,sans-serif" font-size="12" font-weight="400" fill="#EF4444">⚠️ 重置所有数据</text>
</svg>