<svg xmlns="http://www.w3.org/2000/svg" width="240" height="320" viewBox="0 0 240 320">
<defs><filter id="sh"><feDropShadow dx="0" dy="4" stdDeviation="8" flood-opacity="0.1"/></filter></defs>
<rect width="240" height="320" fill="#E2E8F0" rx="0"/>
<rect x="0" y="0" width="240" height="320" rx="16" fill="rgb(255,255,255)" fill-opacity="0.85" filter="url(#sh)"/>
<text x="12" y="28" font-family="Inter,Noto Sans SC,sans-serif" font-size="16" font-weight="700" fill="#EC4899">💕 建立情侣关系</text>
<rect x="12" y="46" width="240" height="320" rx="8" fill="#FDF2F8" fill-opacity="1"/>
<rect x="20" y="54" width="24" height="24" rx="12" fill="#EC4899" fill-opacity="1"/>
<text x="20" y="66" font-family="Inter,Noto Sans SC,sans-serif" font-size="12" font-weight="700" fill="#FFF">1</text>
<text x="20" y="98" font-family="Inter,Noto Sans SC,sans-serif" font-size="12" font-weight="400" fill="#1E293B">生成配对码</text>
<rect x="12" y="118" width="240" height="44" rx="8" fill="#F8FAFC" fill-opacity="1"/>
<text x="12" y="138" font-family="Inter,Noto Sans SC,sans-serif" font-size="20" font-weight="700" fill="#65C466">YH7K-3M2P</text>
<rect x="12" y="172" width="240" height="320" rx="8" fill="#FDF2F8" fill-opacity="1"/>
<rect x="20" y="180" width="24" height="24" rx="12" fill="#EC4899" fill-opacity="1"/>
<text x="20" y="192" font-family="Inter,Noto Sans SC,sans-serif" font-size="12" font-weight="700" fill="#FFF">2</text>
<text x="20" y="224" font-family="Inter,Noto Sans SC,sans-serif" font-size="12" font-weight="400" fill="#1E293B">等待对方输入</text>
<rect x="12" y="244" width="240" height="320" rx="8" fill="#FDF2F8" fill-opacity="1"/>
<rect x="20" y="252" width="24" height="24" rx="12" fill="#EC4899" fill-opacity="1"/>
<text x="20" y="264" font-family="Inter,Noto Sans SC,sans-serif" font-size="12" font-weight="700" fill="#FFF">3</text>
<text x="20" y="296" font-family="Inter,Noto Sans SC,sans-serif" font-size="12" font-weight="400" fill="#1E293B">绑定成功，开始共养</text>
<rect x="12" y="316" width="240" height="320" rx="0" fill="none" fill-opacity="1"/>
<text x="12" y="327" font-family="Inter,Noto Sans SC,sans-serif" font-size="11" font-weight="400" fill="#64748B">给 Ta 取个昵称</text>
<rect x="12" y="339" width="240" height="36" rx="8" fill="#F8FAFC" fill-opacity="1" stroke="#E2E8F0" stroke-width="1"/>
<text x="20" y="352" font-family="Inter,Noto Sans SC,sans-serif" font-size="13" font-weight="400" fill="#1E293B">宝贝</text>
</svg>